Coordinates
version=1
nRows=18
nColumns=38
inDegrees=no

Units are S.I. units (second, meters, Newtons, ...)
If the header above contains a line with 'inDegrees', this indicates whether rotational values are in degrees (yes) or radians (no).

endheader
time	pelvis_tilt	pelvis_list	pelvis_rotation	pelvis_tx	pelvis_ty	pelvis_tz	hip_flexion_r	hip_adduction_r	hip_rotation_r	knee_angle_r	ankle_angle_r	subtalar_angle_r	mtp_angle_r	hip_flexion_l	hip_adduction_l	hip_rotation_l	knee_angle_l	ankle_angle_l	subtalar_angle_l	mtp_angle_l	lumbar_extension	lumbar_bending	lumbar_rotation	arm_flex_r	arm_add_r	arm_rot_r	elbow_flex_r	pro_sup_r	wrist_flex_r	wrist_dev_r	arm_flex_l	arm_add_l	arm_rot_l	elbow_flex_l	pro_sup_l	wrist_flex_l	wrist_dev_l
20	1.60311	1.4079	-0.0852228	0.720465	-0.396633	0.975939	0.0410771	0.122681	-0.294052	0.246911	0.085405	0	0	-0.0898566	-0.12775	-0.176078	0	0.0467404	0	0	-0.0338376	0.192986	0.0366626	0.13085	-0.245246	-1.5708	0	0	0	0	-0.047371	-0.174362	0.523589	0.600144	0.959189	0	0
20.01	1.6099	1.40798	-0.0908511	0.720848	-0.396366	0.97591	0.0398169	0.123148	-0.294178	0.247005	0.0859006	0	0	-0.0909094	-0.128255	-0.175636	0	0.0471377	0	0	-0.03451	0.193243	0.0365788	0.131465	-0.244967	-1.5708	0	0	0	0	-0.0461362	-0.174679	0.524392	0.600685	0.959803	0	0
20.02	1.61667	1.40815	-0.0965974	0.721291	-0.396222	0.975919	0.0386625	0.123389	-0.295067	0.247397	0.0867641	0	0	-0.0919866	-0.128604	-0.174998	0	0.0474008	0	0	-0.0352655	0.193326	0.0362075	0.132356	-0.24493	-1.5708	0	0	0	0	-0.0453369	-0.175093	0.524568	0.601771	0.961043	0	0
20.03	1.62456	1.40829	-0.103441	0.72174	-0.396125	0.975959	0.0372373	0.12373	-0.295634	0.247472	0.0872982	0	0	-0.0931469	-0.128923	-0.174382	0	0.0475291	0	0	-0.0364692	0.193316	0.0357961	0.13314	-0.244922	-1.5708	0	0	0	0	-0.0445841	-0.175475	0.524061	0.603164	0.962809	0	0
20.04	1.63306	1.40836	-0.110932	0.722181	-0.396072	0.976018	0.0358106	0.124073	-0.296377	0.247667	0.0875794	0	0	-0.0943625	-0.129274	-0.173883	0	0.0476568	0	0	-0.037938	0.193356	0.0353598	0.134271	-0.244714	-1.5708	0	0	0	0	-0.0438403	-0.175536	0.522393	0.604296	0.964967	0	0
20.05	1.64032	1.40844	-0.117235	0.722605	-0.396027	0.976061	0.0345711	0.124414	-0.297063	0.247736	0.0878508	0	0	-0.0953565	-0.129604	-0.173335	0	0.0477261	0	0	-0.039199	0.193466	0.0347832	0.135645	-0.244425	-1.5708	0	0	0	0	-0.0433061	-0.175285	0.51963	0.60517	0.967549	0	0
20.06	1.6464	1.40858	-0.122539	0.723047	-0.395984	0.976101	0.0335587	0.124702	-0.297698	0.247866	0.0883131	0	0	-0.0961803	-0.129834	-0.172991	0	0.047764	0	0	-0.0402757	0.193508	0.034417	0.136601	-0.244295	-1.5708	0	0	0	0	-0.0429363	-0.174971	0.516576	0.606159	0.970379	0	0
20.07	1.65189	1.40877	-0.127434	0.723498	-0.395948	0.976156	0.0326421	0.124932	-0.298252	0.247962	0.0887582	0	0	-0.0969607	-0.130016	-0.172867	0	0.0477396	0	0	-0.0413309	0.193475	0.0343196	0.137147	-0.244218	-1.5708	0	0	0	0	-0.0427214	-0.174621	0.513149	0.607221	0.973141	0	0
20.08	1.6554	1.40891	-0.130549	0.723961	-0.39595	0.976195	0.0322585	0.125142	-0.299092	0.248402	0.0892323	0	0	-0.0973966	-0.13032	-0.172844	0	0.0476309	0	0	-0.0421971	0.193459	0.0347104	0.137444	-0.244141	-1.5708	0	0	0	0	-0.0423925	-0.17385	0.507916	0.607345	0.973319	0	0
20.09	1.65668	1.40907	-0.131582	0.724426	-0.395997	0.976207	0.0322792	0.12539	-0.299851	0.248723	0.0895406	0	0	-0.0974279	-0.130675	-0.172783	0	0.0474927	0	0	-0.0428122	0.193453	0.0354791	0.137539	-0.244109	-1.5708	0	0	0	0	-0.0420263	-0.172464	0.499675	0.606102	0.968973	0	0
20.1	1.65932	1.40941	-0.133767	0.724853	-0.396032	0.976213	0.031816	0.125542	-0.299935	0.248591	0.0898511	0	0	-0.0976628	-0.130789	-0.172421	0	0.0474431	0	0	-0.0434741	0.193211	0.0358929	0.137474	-0.24411	-1.5708	0	0	0	0	-0.0418617	-0.171338	0.492859	0.606287	0.965823	0	0
20.11	1.66168	1.40972	-0.13576	0.72528	-0.396059	0.976216	0.0312471	0.125828	-0.299711	0.248174	0.0900741	0	0	-0.0978418	-0.130941	-0.172021	0	0.0473993	0	0	-0.0440235	0.192984	0.0361049	0.137358	-0.244077	-1.5708	0	0	0	0	-0.041906	-0.170408	0.487401	0.607645	0.965527	0	0
20.12	1.66325	1.41003	-0.137086	0.72573	-0.396097	0.976221	0.0310172	0.126033	-0.299856	0.248119	0.090376	0	0	-0.0978928	-0.131127	-0.171663	0	0.0473666	0	0	-0.0444589	0.192696	0.0363687	0.137092	-0.244034	-1.5708	0	0	0	0	-0.0420656	-0.169569	0.482967	0.60992	0.96929	0	0
20.13	1.6644	1.41027	-0.138175	0.726188	-0.39614	0.976224	0.0311514	0.126161	-0.30032	0.248696	0.0908748	0	0	-0.0979331	-0.131378	-0.171481	0	0.0473869	0	0	-0.044904	0.19243	0.0370918	0.136502	-0.244081	-1.5708	0	0	0	0	-0.0423615	-0.16882	0.479762	0.613041	0.978288	0	0
20.14	1.66584	1.4106	-0.139659	0.726625	-0.396179	0.976225	0.0314477	0.126087	-0.300887	0.249714	0.0915759	0	0	-0.0980569	-0.13152	-0.171395	0	0.0473531	0	0	-0.0454293	0.192059	0.0380141	0.135678	-0.244183	-1.5708	0	0	0	0	-0.0427629	-0.167603	0.47399	0.61466	0.986202	0	0
20.15	1.66726	1.41088	-0.141058	0.727043	-0.396229	0.976224	0.0315766	0.126134	-0.301195	0.250334	0.0920968	0	0	-0.0981473	-0.131691	-0.171236	0	0.0472634	0	0	-0.0459185	0.191715	0.0386456	0.13483	-0.244354	-1.5708	0	0	0	0	-0.0430364	-0.166284	0.467446	0.615181	0.991155	0	0
20.16	1.72417	1.41779	-0.201001	0.726006	-0.395278	0.976743	0.0231861	0.114068	-0.304627	0.253887	0.0979161	0	0	-0.108225	-0.117041	-0.180019	0	0.0551541	0	0	-0.0532881	0.185808	0.0423912	0.133008	-0.249267	-1.5708	0	0	0	0	-0.0437845	-0.161396	0.462247	0.613476	0.993405	0	0
20.17	1.72696	1.41803	-0.203808	0.726433	-0.395339	0.976771	0.0229882	0.114168	-0.304809	0.254238	0.0982504	0	0	-0.108577	-0.117173	-0.180053	0	0.0550265	0	0	-0.0540841	0.185362	0.0432297	0.131954	-0.24931	-1.5708	0	0	0	0	-0.0436061	-0.160413	0.458522	0.613829	0.99469	0	0
